# xmcd
#
# Track frame offsets:
#	150
#	19020
#	44072
#	56270
#
# Disc length: 985 seconds
#
# Revision: 1
# Processed by: cddbd v1.5.1PL2 Copyright (c) Steve Scherf et al.
# Submitted via: audiograbber 1.83.01
#
DISCID=2c03d704
DTITLE=Various Artist - Emperor Norton Free Sampler CD
DYEAR=1900
DGENRE=
TTITLE0=Pepe Deluxe - Three Times A Player
TTITLE1=Pepe Deluxe - Woman In Blue
TTITLE2=Senor Coconut - Suavito
TTITLE3=Mia Doi Todd - Digital (Version 2.2)
EXTD=
EXTT0=
EXTT1=
EXTT2=
EXTT3=
PLAYORDER=
